<?xml version="1.0" standalone="no"?>
<!DOCTYPE svg PUBLIC "-//W3C//DTD SVG 20010904//EN"
 "http://www.w3.org/TR/2001/REC-SVG-20010904/DTD/svg10.dtd">
<svg version="1.0" xmlns="http://www.w3.org/2000/svg"
 width="1200.000000pt" height="1200.000000pt" viewBox="0 0 1200.000000 1200.000000"
 preserveAspectRatio="xMidYMid meet">

<g transform="translate(0.000000,1200.000000) scale(0.100000,-0.100000)"
fill="#000000" stroke="none">
<path d="M5705 11993 c-388 -23 -718 -69 -1060 -148 -1743 -403 -3226 -1576
-4020 -3180 -567 -1145 -751 -2406 -539 -3680 309 -1850 1512 -3483 3194
-4335 690 -349 1337 -538 2150 -627 235 -26 900 -26 1145 0 917 96 1737 365
2495 817 1524 910 2567 2440 2855 4193 84 508 98 1118 39 1652 -101 911 -430
1820 -941 2600 -245 373 -505 687 -835 1010 -1130 1105 -2645 1717 -4220 1703
-117 -1 -235 -3 -263 -5z m610 -723 c713 -45 1358 -214 1990 -520 386 -186
705 -392 1070 -689 160 -130 536 -504 671 -666 731 -882 1145 -1914 1225
-3050 22 -321 3 -796 -47 -1130 -110 -748 -411 -1526 -834 -2156 -477 -709
-1145 -1315 -1885 -1710 -625 -334 -1245 -524 -1965 -604 -195 -22 -682 -31
-885 -16 -1148 83 -2158 489 -3050 1227 -256 211 -612 587 -832 879 -528 698
-882 1559 -1002 2435 -38 284 -46 399 -45 740 0 347 10 488 55 790 83 554 281
1159 542 1650 841 1588 2394 2631 4172 2804 267 26 564 32 820 16z"/>
<path d="M5997 10450 c-4 -63 -41 -1465 -82 -3115 -42 -1650 -77 -3006 -78
-3014 -1 -8 -143 193 -316 445 -172 252 -318 464 -323 469 -5 6 4 -26 20 -70
194 -530 384 -1057 381 -1060 -2 -2 -290 -44 -639 -95 -564 -81 -680 -100
-629 -100 22 0 1264 -181 1268 -185 3 -3 -155 -315 -391 -772 -55 -106 -97
-193 -95 -193 3 0 161 164 353 365 191 201 348 364 349 363 2 -2 -42 -1716
-45 -1760 -2 -35 -459 253 -673 425 -335 269 -576 525 -786 837 -200 298 -327
578 -411 906 -193 752 -69 1567 371 2446 38 76 69 142 69 148 0 6 -25 40 -56
77 -31 36 -97 121 -147 187 -439 589 -719 1195 -813 1761 -23 138 -27 537 -6
655 84 475 294 827 712 1194 l55 48 -70 -48 c-353 -241 -782 -654 -1065 -1024
-427 -561 -676 -1147 -766 -1805 -26 -185 -26 -635 -1 -830 72 -559 264 -1121
566 -1660 40 -71 84 -150 98 -175 l25 -45 -34 36 c-483 524 -843 1148 -993
1723 -156 598 -120 1099 119 1651 37 85 7 41 -74 -105 -118 -215 -240 -507
-316 -760 -247 -810 -239 -1640 21 -2425 148 -445 402 -921 702 -1318 41 -53
69 -97 64 -97 -5 0 -57 46 -116 102 -300 287 -584 743 -826 1332 -32 77 -59
131 -59 119 0 -40 50 -292 89 -445 166 -652 469 -1269 867 -1768 138 -174 451
-486 624 -623 599 -478 1314 -776 2163 -902 331 -49 486 -59 897 -59 403 0
569 10 875 55 1196 174 2143 692 2823 1543 382 478 687 1101 852 1738 46 179
93 418 88 449 -2 14 -25 -32 -63 -127 -73 -182 -238 -518 -330 -674 -88 -148
-199 -312 -290 -425 -74 -92 -303 -321 -312 -312 -2 3 29 49 70 104 449 597
744 1273 851 1955 42 270 55 728 28 978 -58 515 -202 1011 -422 1450 -58 116
-157 290 -165 290 -2 0 16 -43 41 -95 93 -200 161 -446 189 -683 84 -717 -181
-1523 -751 -2285 -150 -201 -415 -506 -342 -394 78 118 269 487 350 677 186
431 301 868 338 1280 24 271 8 641 -40 910 -162 906 -725 1791 -1573 2473
-146 118 -354 264 -257 181 97 -82 275 -263 341 -345 579 -724 534 -1706 -129
-2819 -125 -210 -303 -462 -447 -637 -36 -42 -65 -82 -65 -87 0 -5 18 -41 39
-80 112 -205 255 -548 334 -806 100 -325 146 -594 154 -911 10 -377 -31 -663
-144 -999 -250 -747 -881 -1457 -1701 -1915 -57 -32 -105 -56 -107 -54 -4 4
-45 1539 -45 1681 l0 87 301 -317 c166 -174 324 -339 352 -367 49 -49 46 -43
-178 400 -125 248 -237 465 -247 483 -11 18 -19 35 -17 36 2 2 290 45 639 96
549 79 679 100 634 100 -5 0 -212 29 -459 65 -248 36 -531 77 -630 92 -99 14
-181 27 -183 28 -1 1 90 255 203 565 112 310 204 565 202 566 -1 1 -85 -120
-187 -269 -102 -149 -246 -359 -320 -466 l-135 -196 -81 3130 c-53 2063 -83
3091 -87 3015z"/>
</g>
</svg>
